<?xml version="1.0" encoding="UTF-8"?>
<svg xmlns="http://www.w3.org/2000/svg" width="960" height="720" viewBox="0 0 960 720" role="img" aria-labelledby="title desc">
  <title id="title">Ingressos de Cinema Internacional - visual do projeto</title>
  <desc id="desc">Painel visual abstrato representando a interface do projeto Ingressos de Cinema Internacional.</desc>
  <defs>
    <linearGradient id="bg" x1="0" y1="0" x2="1" y2="1">
      <stop offset="0" stop-color="#111827" stop-opacity="0.95"/>
      <stop offset="0.55" stop-color="#c2410c" stop-opacity="0.82"/>
      <stop offset="1" stop-color="#facc15" stop-opacity="0.72"/>
    </linearGradient>
    <filter id="shadow" x="-20%" y="-20%" width="140%" height="140%">
      <feDropShadow dx="0" dy="24" stdDeviation="24" flood-color="#101828" flood-opacity="0.22"/>
    </filter>
  </defs>
  <rect width="960" height="720" rx="32" fill="#f8fbff"/>
  <path d="M90 116 C205 40 298 160 414 92 S642 66 808 146" fill="none" stroke="#111827" stroke-width="4" stroke-opacity="0.18"/>
  <path d="M105 590 C245 510 346 646 490 555 S683 515 850 596" fill="none" stroke="#c2410c" stroke-width="4" stroke-opacity="0.16"/>
  <g opacity="0.75">
    <circle cx="132" cy="128" r="10" fill="#facc15"/>
    <circle cx="352" cy="94" r="8" fill="#c2410c"/>
    <circle cx="574" cy="110" r="12" fill="#111827"/>
    <circle cx="800" cy="148" r="9" fill="#facc15"/>
    <line x1="132" y1="128" x2="352" y2="94" stroke="#334155" stroke-width="2" stroke-opacity="0.12"/>
    <line x1="352" y1="94" x2="574" y2="110" stroke="#334155" stroke-width="2" stroke-opacity="0.12"/>
    <line x1="574" y1="110" x2="800" y2="148" stroke="#334155" stroke-width="2" stroke-opacity="0.12"/>
  </g>
  <g filter="url(#shadow)">
    <rect x="150" y="146" width="660" height="438" rx="26" fill="#ffffff"/>
    <rect x="150" y="146" width="660" height="72" rx="26" fill="url(#bg)"/>
    <circle cx="198" cy="182" r="10" fill="#ffffff" opacity="0.92"/>
    <circle cx="230" cy="182" r="10" fill="#ffffff" opacity="0.62"/>
    <circle cx="262" cy="182" r="10" fill="#ffffff" opacity="0.42"/>
    <text x="330" y="190" font-family="Arial, sans-serif" font-size="25" font-weight="700" fill="#ffffff">Cinema</text>
    <rect x="198" y="266" width="240" height="42" rx="8" fill="#111827" opacity="0.12"/>
    <rect x="198" y="328" width="364" height="18" rx="7" fill="#1f2937" opacity="0.16"/>
    <rect x="198" y="366" width="310" height="18" rx="7" fill="#1f2937" opacity="0.10"/>
    <rect x="198" y="424" width="154" height="48" rx="8" fill="#111827"/>
    <text x="224" y="455" font-family="Arial, sans-serif" font-size="17" font-weight="700" fill="#ffffff">Buscar sessões</text>
    <g>
      <rect x="590" y="260" width="156" height="84" rx="12" fill="#111827" opacity="0.10"/>
      <text x="612" y="294" font-family="Arial, sans-serif" font-size="16" font-weight="700" fill="#0f172a">Filme em alta</text>
      <text x="612" y="322" font-family="Arial, sans-serif" font-size="22" font-weight="800" fill="#111827">Sessão 19h30</text>
      <rect x="590" y="368" width="156" height="84" rx="12" fill="#c2410c" opacity="0.12"/>
      <text x="612" y="402" font-family="Arial, sans-serif" font-size="16" font-weight="700" fill="#0f172a">Cinemas</text>
      <text x="612" y="430" font-family="Arial, sans-serif" font-size="22" font-weight="800" fill="#c2410c">24 opções</text>
      <rect x="590" y="476" width="156" height="84" rx="12" fill="#facc15" opacity="0.20"/>
      <text x="612" y="510" font-family="Arial, sans-serif" font-size="16" font-weight="700" fill="#0f172a">Melhor nota</text>
      <text x="612" y="538" font-family="Arial, sans-serif" font-size="22" font-weight="800" fill="#92400e">4,9/5</text>
    </g>
  </g>
</svg>
